Coordinates
version=1
nRows=23
nColumns=28
inDegrees=yes

Units are S.I. units (second, meters, Newtons, ...)
If the header above contains a line with 'inDegrees', this indicates whether rotational values are in degrees (yes) or radians (no).

endheader
time	pelvis_tilt	pelvis_list	pelvis_rotation	pelvis_tx	pelvis_ty	pelvis_tz	hip_flexion_r	hip_adduction_r	hip_rotation_r	knee_angle_r	knee_angle_r_ie	knee_angle_r_vv	ankle_angle_r	subtalar_angle_r	mtp_angle_r	hip_flexion_l	hip_adduction_l	hip_rotation_l	knee_angle_l	knee_angle_l_ie	knee_angle_l_vv	ankle_angle_l	subtalar_angle_l	mtp_angle_l	lumbar_extension	lumbar_bending	lumbar_rotation
      2.98500000	      1.13501234	      3.98813889	     18.24138711	     -0.81251532	      0.91666878	      0.37789540	     -8.12544402	     -5.11820056	    -20.82813684	     -1.85270334	    -17.77098713	     -0.90728590	     10.04125573	     -1.43633123	      0.00000000	     -4.08516018	      2.97794440	      4.62890693	      1.46373850	     12.00779761	     -3.02201167	      6.24241876	     -4.32736409	      0.00000000	     -6.46615515	     -4.54837517	      0.90475757
      2.99000000	      1.12476402	      3.97108667	     18.19444115	     -0.81251395	      0.91664125	      0.37789828	     -8.11127527	     -5.11468729	    -20.79278179	     -1.83763587	    -17.74945040	     -0.90245070	     10.02033012	     -1.43446065	      0.00000000	     -4.04555293	      2.98643388	      4.61058700	      1.41967848	     12.02835921	     -3.00180926	      6.27414748	     -4.35730723	      0.00000000	     -6.48058557	     -4.54046163	      0.91669404
      2.99500000	      1.09595740	      3.95189414	     18.15067471	     -0.81252714	      0.91659115	      0.37789998	     -8.07504908	     -5.11474400	    -20.74067907	     -1.82409575	    -17.74412384	     -0.89686011	      9.99946383	     -1.44997428	      0.00000000	     -3.98112103	      2.99538997	      4.59852966	      1.36688365	     12.04728652	     -2.99120086	      6.31795656	     -4.39615069	      0.00000000	     -6.48038600	     -4.53535484	      0.93855279
      3.00000000	      1.06924501	      3.93316616	     18.10677050	     -0.81252821	      0.91653685	      0.37787831	     -8.04320783	     -5.11591085	    -20.67889184	     -1.81002025	    -17.74835180	     -0.88915296	      9.98065757	     -1.47076905	      0.00000000	     -3.92034065	      3.00939983	      4.58640971	      1.31452914	     12.06764180	     -2.97265048	      6.35018188	     -4.43437517	      0.00000000	     -6.47660432	     -4.53154733	      0.95447504
      3.00500000	      1.04031653	      3.91417791	     18.05860511	     -0.81250953	      0.91647512	      0.37785702	     -8.01232294	     -5.11726070	    -20.60226670	     -1.79014447	    -17.76567635	     -0.87766711	      9.96045888	     -1.50254983	      0.00000000	     -3.85986865	      3.02032340	      4.57750540	      1.26631910	     12.08360266	     -2.96083031	      6.38626944	     -4.47619333	      0.00000000	     -6.46728312	     -4.52314919	      0.97524940
      3.01000000	      1.03658566	      3.90359940	     18.03374838	     -0.81249355	      0.91643783	      0.37779163	     -8.01836980	     -5.11403999	    -20.58239634	     -1.76498034	    -17.76337462	     -0.87150724	      9.95670894	     -1.50384939	      0.00000000	     -3.82680919	      3.03749107	      4.57322119	      1.21658106	     12.09516057	     -2.93112706	      6.39337678	     -4.49061510	      0.00000000	     -6.49013675	     -4.51955072	      0.97480856
      3.01500000	      1.01631711	      3.89358639	     17.98495061	     -0.81249223	      0.91637861	      0.37774428	     -7.99519723	     -5.12431804	    -20.48738640	     -1.75220541	    -17.79518466	     -0.86181085	      9.91855784	     -1.53358746	      0.00000000	     -3.77523663	      3.05649320	      4.57002547	      1.16044743	     12.11903898	     -2.92510209	      6.46796146	     -4.54802968	      0.00000000	     -6.50004389	     -4.52252400	      0.97429381
      3.02000000	      1.00752549	      3.88714913	     17.95549005	     -0.81250285	      0.91633686	      0.37765781	     -7.99038696	     -5.13157576	    -20.41847542	     -1.73478133	    -17.82815355	     -0.85515801	      9.89008106	     -1.56267925	      0.00000000	     -3.73220002	      3.07844787	      4.57407547	      1.09808901	     12.13427498	     -2.90781646	      6.50656103	     -4.58809399	      0.00000000	     -6.52794803	     -4.52662912	      0.96672401
      3.02500000	      1.00355265	      3.87285991	     17.91651708	     -0.81248035	      0.91629026	      0.37757692	     -7.98870776	     -5.12732823	    -20.35036707	     -1.71307940	    -17.84863237	     -0.85473813	      9.86238199	     -1.58211638	      0.00000000	     -3.69709287	      3.08951817	      4.57189346	      1.04198597	     12.15198113	     -2.89263676	      6.55198391	     -4.62894079	      0.00000000	     -6.55094552	     -4.52047705	      0.96470610
      3.03000000	      1.00558475	      3.86464617	     17.88384387	     -0.81246128	      0.91626126	      0.37748504	     -7.99339617	     -5.12612267	    -20.30117286	     -1.69740215	    -17.86101522	     -0.85898984	      9.83642463	     -1.59236386	      0.00000000	     -3.66682507	      3.10507221	      4.56932771	      0.97915732	     12.16797309	     -2.87457717	      6.59287606	     -4.66227227	      0.00000000	     -6.58325305	     -4.52648982	      0.95695323
      3.03500000	      1.00812880	      3.85494307	     17.84653793	     -0.81243570	      0.91623498	      0.37736821	     -7.99992089	     -5.12842774	    -20.24374434	     -1.67619625	    -17.87752442	     -0.85723972	      9.80301428	     -1.60523192	      0.00000000	     -3.63942996	      3.11855101	      4.57069394	      0.91867706	     12.18320790	     -2.86246636	      6.65323088	     -4.70129682	      0.00000000	     -6.61807505	     -4.52317565	      0.94668193
      3.04000000	      1.01219341	      3.83841449	     17.81196200	     -0.81240236	      0.91621415	      0.37724218	     -8.00572343	     -5.12330344	    -20.19420494	     -1.65724378	    -17.89143617	     -0.85500626	      9.77311528	     -1.61730956	      0.00000000	     -3.61000723	      3.12377585	      4.57162986	      0.85406175	     12.19656792	     -2.85008263	      6.70901790	     -4.73649855	      0.00000000	     -6.65123201	     -4.51404059	      0.93575148
      3.04500000	      1.01463280	      3.81792183	     17.77586177	     -0.81235419	      0.91619626	      0.37708184	     -8.01245470	     -5.11955944	    -20.14708356	     -1.63578538	    -17.90371054	     -0.84621374	      9.74053434	     -1.62965512	      0.00000000	     -3.58061325	      3.12684967	      4.57528778	      0.79243118	     12.20710504	     -2.83961651	      6.77389772	     -4.77319129	      0.00000000	     -6.67850039	     -4.49574738	      0.92357159
      3.05000000	      1.01419298	      3.78525105	     17.74857611	     -0.81233075	      0.91617670	      0.37694182	     -8.00728492	     -5.10114815	    -20.11222029	     -1.62269547	    -17.91072247	     -0.84080165	      9.70742567	     -1.63836053	      0.00000000	     -3.53602576	      3.11296518	      4.57807883	      0.71673805	     12.21555909	     -2.83583614	      6.84340310	     -4.80985856	      0.00000000	     -6.70674878	     -4.47530751	      0.90073253
      3.05500000	      1.01625636	      3.75885704	     17.71724807	     -0.81227723	      0.91617327	      0.37676220	     -8.01315858	     -5.09591762	    -20.08570990	     -1.60942627	    -17.90763276	     -0.82491032	      9.67917395	     -1.63811048	      0.00000000	     -3.50158183	      3.11108289	      4.57459873	      0.64621203	     12.22754812	     -2.82057583	      6.90053326	     -4.84171172	      0.00000000	     -6.72875335	     -4.45989422	      0.88372641
      3.06000000	      1.01741254	      3.72775749	     17.68635630	     -0.81222909	      0.91616912	      0.37656530	     -8.02107164	     -5.09040352	    -20.05623068	     -1.58982909	    -17.90713876	     -0.80066921	      9.64480716	     -1.63941432	      0.00000000	     -3.46424722	      3.10315903	      4.57533096	      0.57233713	     12.23566389	     -2.81361973	      6.98099449	     -4.87766799	      0.00000000	     -6.75190048	     -4.43720616	      0.85916522
      3.06500000	      1.01663154	      3.68392426	     17.64975342	     -0.81215813	      0.91615521	      0.37639881	     -8.02785863	     -5.06923970	    -20.01203949	     -1.56030973	    -17.91025129	     -0.77663429	      9.60843793	     -1.64450646	      0.00000000	     -3.42171063	      3.07694308	      4.57228256	      0.49630526	     12.24301459	     -2.81644480	      7.07321828	     -4.91577293	      0.00000000	     -6.76609399	     -4.40665479	      0.83597190
      3.07000000	      1.01169001	      3.64191632	     17.61613251	     -0.81208277	      0.91613432	      0.37618284	     -8.04090934	     -5.05985379	    -19.95528925	     -1.52434639	    -17.92822427	     -0.73547445	      9.56359734	     -1.65824406	      0.00000000	     -3.37801235	      3.05826722	      4.57725876	      0.42205969	     12.24607912	     -2.81564403	      7.17815440	     -4.95434027	      0.00000000	     -6.77786496	     -4.37271818	      0.81099065
      3.07500000	      1.00794434	      3.60349729	     17.58989588	     -0.81202341	      0.91611140	      0.37596117	     -8.06433350	     -5.05294556	    -19.87974490	     -1.47490856	    -17.96829130	     -0.68937721	      9.51603731	     -1.68742681	      0.00000000	     -3.33260989	      3.04119851	      4.59177941	      0.34253622	     12.24560711	     -2.81865181	      7.28546529	     -4.98961294	      0.00000000	     -6.79325273	     -4.34309748	      0.77979431
      3.08000000	      1.00593147	      3.56466040	     17.56416914	     -0.81197239	      0.91607947	      0.37571911	     -8.09161430	     -5.05020092	    -19.79909403	     -1.43214846	    -18.00903429	     -0.63423708	      9.46525203	     -1.71286949	      0.00000000	     -3.28664997	      3.02632462	      4.60326919	      0.25708065	     12.25405706	     -2.81918281	      7.39394750	     -5.02813016	      0.00000000	     -6.81339890	     -4.31668492	      0.74666970
      3.08500000	      1.01105995	      3.52863388	     17.53073912	     -0.81187846	      0.91604684	      0.37547344	     -8.13735570	     -5.04666950	    -19.67220198	     -1.36877353	    -18.08994400	     -0.57782997	      9.40771826	     -1.76550595	      0.00000000	     -3.25683620	      3.00989616	      4.62713114	      0.17908840	     12.25887923	     -2.82013284	      7.51791102	     -5.06252983	      0.00000000	     -6.82709549	     -4.29077829	      0.73100698
      3.09000000	      1.02298242	      3.50521153	     17.49792728	     -0.81180984	      0.91601906	      0.37517302	     -8.19202576	     -5.06397517	    -19.54524747	     -1.31982770	    -18.17150000	     -0.50798752	      9.35041521	     -1.81557099	      0.00000000	     -3.23473392	      3.01269684	      4.64025779	      0.09397257	     12.27677391	     -2.81760018	      7.62483726	     -5.08931289	      0.00000000	     -6.86526714	     -4.27826375	      0.71751305
      3.09500000	      1.02643983	      3.49148427	     17.44818546	     -0.81171759	      0.91598323	      0.37488294	     -8.23222580	     -5.09152354	    -19.48375189	     -1.27933554	    -18.16933609	     -0.46193273	      9.30914982	     -1.80587095	      0.00000000	     -3.21175466	      3.03091609	      4.62668040	      0.01644370	     12.30416707	     -2.81162538	      7.71671235	     -5.12816660	      0.00000000	     -6.89288787	     -4.27959835	      0.70559848
